#!OML:ASF E:\VariousWalksJay\Project 1\Capture day 1\Session 1\Actor2.ASF
:FULLY-SPECIFIED
:DEGREES
1382
root -7.42854 15.8452 -10.4568 227.563 86.1306 -140.784
lowerback 10.7153 -1.66496 3.16918
upperback 8.30001 -1.53146 -1.42246
thorax 2.541 -0.41867 -3.12266
lowerneck -8.75144 5.4002 6.13396
upperneck 10.7392 6.34676 1.4943
head 4.8137 3.47628 -0.090605
rclavicle -1.19271e-014 -2.38542e-015
rhumerus -26.2231 15.407 -59.7
rradius 84.4514
rwrist 4.02561
rhand -8.54908 1.12503
rfingers 7.12502
rthumb 17.3805 -28.1179
lclavicle -1.19271e-014 -2.38542e-015
lhumerus 5.94409 -33.5171 55.7713
lradius 83.3269
lwrist 1.72052
lhand -11.9494 -9.64193
lfingers 7.12502
lthumb 14.1058 19.8593
rfemur -18.0895 -16.5678 -2.99319
rtibia 38.7812
rfoot -14.495 -18.44
rtoes -7.1961
lfemur -27.0304 16.058 8.75932
ltibia 35.8774
lfoot -5.67997 2.579
ltoes -24.4722
1383
root -7.43528 15.8454 -10.4422 222.654 85.5853 -145.815
lowerback 10.7813 -1.7537 3.14856
upperback 8.33043 -1.64283 -1.35222
thorax 2.53079 -0.474434 -3.02697
lowerneck -8.86226 5.31721 6.04189
upperneck 10.8048 6.2474 1.3958
head 4.85003 3.4185 -0.10954
rclavicle 1.19271e-015 -7.95139e-015
rhumerus -26.0885 15.5965 -60.1891
rradius 84.1705
rwrist 4.19936
rhand -8.50758 1.05381
rfingers 7.12502
rthumb 17.4204 -28.1856
lclavicle 1.19271e-015 -7.95139e-015
lhumerus 5.99809 -33.3004 55.8417
lradius 83.315
lwrist 1.56467
lhand -11.6707 -9.43473
lfingers 7.12502
lthumb 14.3743 20.0476
rfemur -17.9194 -16.9674 -2.8732
rtibia 38.8244
rfoot -14.7281 -18.5476
rtoes -7.00282
lfemur -27.878 16.398 8.57383
ltibia 36.2704
lfoot -5.24483 2.21965
ltoes -24.3686
1384
root -7.44452 15.8451 -10.4268 219.566 85.008 -149.026
lowerback 10.8786 -1.88252 3.23925
upperback 8.35943 -1.79667 -1.33582
thorax 2.4954 -0.545555 -3.04548
lowerneck -8.86939 5.27782 5.96694
upperneck 10.7761 6.20811 1.35623
head 4.83998 3.39285 -0.11325
rclavicle -9.14409e-015 0
rhumerus -25.8938 15.8556 -60.8559
rradius 83.8473
rwrist 4.36374
rhand -8.46327 1.02698
rfingers 7.12502
rthumb 17.463 -28.2086
lclavicle -9.14409e-015 0
lhumerus 5.99186 -32.9689 55.8793
lradius 83.2564
lwrist 1.45581
lhand -11.3666 -9.2802
lfingers 7.12502
lthumb 14.6673 20.181
rfemur -17.8185 -17.3259 -2.6813
rtibia 38.9292
rfoot -14.9344 -18.7037
rtoes -6.9175
lfemur -28.7631 16.7968 8.43368
ltibia 36.7399
lfoot -4.85708 1.91971
ltoes -23.319
1385
root -7.45486 15.8426 -10.4103 217.39 84.3474 -151.338
lowerback 10.9634 -1.86523 3.54443
upperback 8.45094 -1.73394 -1.44244
thorax 2.54217 -0.490221 -3.33371
lowerneck -9.15966 5.08441 6.22308
upperneck 10.785 5.88948 1.37514
head 4.89221 3.25016 -0.162405
rclavicle -1.27222e-014 -6.36111e-015
rhumerus -25.9728 15.5164 -61.7405
rradius 83.5725
rwrist 4.47971
rhand -8.41856 0.892085
rfingers 7.12502
rthumb 17.5061 -28.3397
lclavicle -1.27222e-014 -6.36111e-015
lhumerus 6.57564 -33.0973 55.509
lradius 83.2097
lwrist 1.49812
lhand -11.0406 -9.1414
lfingers 7.12502
lthumb 14.9814 20.2967
rfemur -17.7459 -17.7038 -2.41913
rtibia 39.0865
rfoot -15.1418 -18.8796
rtoes -6.85367
lfemur -29.799 17.3755 8.26572
ltibia 37.3324
lfoot -4.30087 1.54913
ltoes -22.8686
1386
root -7.46688 15.8371 -10.3921 215.389 83.728 -153.463
lowerback 11.1205 -1.89953 3.60447
upperback 8.49723 -1.75969 -1.39819
thorax 2.50388 -0.497691 -3.31615
lowerneck -9.27266 4.96039 6.00974
upperneck 10.7144 5.73666 1.42892
head 4.87705 3.16842 -0.122054
rclavicle 1.35174e-014 8.74653e-015
rhumerus -25.8565 15.6174 -62.4702
rradius 83.2596
rwrist 4.49742
rhand -8.46922 0.617172
rfingers 7.12502
rthumb 17.4573 -28.6189
lclavicle 1.35174e-014 8.74653e-015
lhumerus 6.73374 -32.9213 55.5826
lradius 83.1789
lwrist 1.52792
lhand -10.7168 -8.97716
lfingers 7.12502
lthumb 15.2933 20.4374
rfemur -17.6987 -18.0361 -2.21352
rtibia 39.2776
rfoot -15.4044 -19.0529
rtoes -6.62763
lfemur -30.9264 18.0727 7.97292
ltibia 38.0432
lfoot -3.74407 1.31524
ltoes -21.5216
1387
root -7.47928 15.8303 -10.3756 213.666 83.0348 -155.341
lowerback 11.238 -1.98541 3.68387
upperback 8.5528 -1.85275 -1.37694
thorax 2.49019 -0.536586 -3.32805
lowerneck -9.3766 4.87181 5.90851
upperneck 10.638 5.62142 1.45011
head 4.86427 3.10763 -0.106735
rclavicle 2.78299e-015 9.54166e-015
rhumerus -25.657 15.883 -63.2338
rradius 82.9361
rwrist 4.31982
rhand -8.46114 0.403
rfingers 7.12502
rthumb 17.4651 -28.8324
lclavicle 2.78299e-015 9.54166e-015
lhumerus 6.84302 -32.6339 55.6446
lradius 83.1355
lwrist 1.64264
lhand -10.3572 -8.87299
lfingers 7.12502
lthumb 15.6396 20.5148
rfemur -17.6753 -18.5301 -1.99326
rtibia 39.4976
rfoot -15.5442 -19.2031
rtoes -6.77909
lfemur -32.2456 18.9565 7.53984
ltibia 38.8922
lfoot -3.14095 1.02919
ltoes -21.0288
